<?xml version="1.0" ?><svg viewBox="0 0 32 32" xmlns="http://www.w3.org/2000/svg"><defs><style>.cls-1{fill:#2278f4;}.cls-2{fill:#9ac3f4;}.cls-3{fill:#2f7ded;}</style></defs><title/><g id="Sunrise"><path class="cls-1" d="M27,22H24.09a1,1,0,0,1,0-2H27a1,1,0,0,1,0,2Z"/><path class="cls-1" d="M20,22H5a1,1,0,0,1,0-2H20a1,1,0,0,1,0,2Z"/><path class="cls-1" d="M25,26H13a1,1,0,0,1,0-2H25a1,1,0,0,1,0,2Z"/><path class="cls-1" d="M9,26H7a1,1,0,0,1,0-2H9a1,1,0,0,1,0,2Z"/><path class="cls-1" d="M23,30H20a1,1,0,0,1,0-2h3a1,1,0,0,1,0,2Z"/><path class="cls-1" d="M16,30H9a1,1,0,0,1,0-2h7a1,1,0,0,1,0,2Z"/><path class="cls-2" d="M16,7a9,9,0,0,0-9,9,1,1,0,0,0,1,1H24a1,1,0,0,0,1-1A9,9,0,0,0,16,7Z"/><path class="cls-3" d="M4,17H3a1,1,0,0,1,0-2H4a1,1,0,0,1,0,2Z"/><path class="cls-3" d="M7.22,8.22a1,1,0,0,1-.71-.29l-.7-.71A1,1,0,0,1,7.22,5.81l.71.7a1,1,0,0,1,0,1.42A1,1,0,0,1,7.22,8.22Z"/><path class="cls-3" d="M16,5a1,1,0,0,1-1-1V3a1,1,0,0,1,2,0V4A1,1,0,0,1,16,5Z"/><path class="cls-3" d="M24.78,8.22a1,1,0,0,1-.71-.29,1,1,0,0,1,0-1.42l.71-.7a1,1,0,0,1,1.41,1.41l-.7.71A1,1,0,0,1,24.78,8.22Z"/><path class="cls-3" d="M29,17H28a1,1,0,0,1,0-2h1a1,1,0,0,1,0,2Z"/><path class="cls-3" d="M24,17H8a1,1,0,0,1-1-1,9,9,0,0,1,18,0A1,1,0,0,1,24,17ZM9.07,15H22.93A7,7,0,0,0,9.07,15Z"/></g></svg>